<svg xmlns="http://www.w3.org/2000/svg" viewBox="0 0 24 24" fill="none" stroke="#2874f0" stroke-width="2" stroke-linecap="round" stroke-linejoin="round">
  <circle cx="9" cy="21" r="1"></circle>
  <circle cx="20" cy="21" r="1"></circle>
  <path d="M1 1h4l2.68 13.39a2 2 0 0 0 2 1.61h9.72a2 2 0 0 0 2-1.61L23 6H6"></path>
  <path d="M14 10a2 2 0 0 1-4 0c0-1.1.9-2 2-2s2 .9 2 2z" fill="#2874f0"></path>
  <path d="M10 8c0-1.5 1-2.5 2-2.5s2 1 2 2.5" stroke="#2874f0"></path>
  <path d="M8 6l1-1m6 1l-1-1" stroke="#2874f0"></path>
</svg>
